<svg width="433" height="451" viewBox="0 0 433 451" fill="none" xmlns="http://www.w3.org/2000/svg">
    <g clip-path="url(#clip0_914_24)">
        <path d="M432.999 247.321H377.128V181.905L266.797 181.133L223.484 162.446V138.208H209.516V162.446L166.203 181.133L55.8717 181.905V247.321H0.00146484V334.611H125.71V247.321H69.8397V196.351L166.16 195.682L209.516 215.685V247.321H153.646V334.611H279.354V247.321H223.484V215.685L266.84 195.682L363.16 196.351V247.321H307.29V334.611H363.16V356.434H209.516V392.806H181.582C166.175 392.806 153.646 405.856 153.646 421.903C153.646 437.95 166.175 451 181.582 451H251.42C266.826 451 279.356 437.95 279.356 421.903C279.356 405.856 266.826 392.806 251.42 392.806H223.484V370.983H377.128V334.611H432.999V247.321ZM111.742 320.063H13.9694V261.87H111.742V320.063ZM265.386 320.063H167.612V261.87H265.386V320.063ZM216.5 202.993L185.345 188.618L216.5 175.183L247.655 188.626L216.5 202.993ZM265.386 421.9C265.386 429.923 259.122 436.448 251.418 436.448H181.582C173.879 436.448 167.614 429.924 167.614 421.9C167.614 413.877 173.878 407.351 181.582 407.351H251.42C259.122 407.353 265.386 413.877 265.386 421.9ZM419.031 320.063H321.257V261.87H419.031V320.063Z" fill="#333333"/>
        <path d="M251.42 145.483H181.582V103.585C168.397 92.557 160.63 75.8699 160.63 58.1943C160.63 26.1062 185.694 0 216.5 0C247.306 0 272.37 26.1062 272.37 58.1928C272.37 75.876 264.605 92.5631 251.418 103.583L251.42 145.483Z" fill="#F9BA48"/>
        <path d="M258.402 109.113H223.482V78.6775C231.591 75.6667 237.45 67.6638 237.45 58.1928C237.45 46.1617 228.049 36.3699 216.499 36.3699C204.948 36.3699 195.547 46.1617 195.547 58.1928C195.547 67.6638 201.406 75.6652 209.515 78.6775V109.113H174.595V123.661H258.401L258.402 109.113ZM216.5 50.9185C220.348 50.9185 223.484 54.1845 223.484 58.1928C223.484 62.2012 220.348 65.4671 216.5 65.4671C212.652 65.4671 209.516 62.2012 209.516 58.1928C209.516 54.1845 212.652 50.9185 216.5 50.9185Z" fill="#333333"/>
        <path d="M139.679 50.9185H104.759V65.4671H139.679V50.9185Z" fill="#333333"/>
        <path d="M142.84 82.0908L110.583 96.0126L115.93 109.453L148.187 95.5308L142.84 82.0908Z" fill="#333333"/>
        <path d="M290.148 82.0874L284.803 95.5289L317.067 109.449L322.412 96.0074L290.148 82.0874Z" fill="#333333"/>
        <path d="M328.242 50.9185H293.322V65.4671H328.242V50.9185Z" fill="#333333"/>
        <path d="M317.048 6.93853L284.792 20.8604L290.139 34.3003L322.395 20.3785L317.048 6.93853Z" fill="#333333"/>
        <path d="M115.94 6.92777L110.594 20.3692L142.858 34.2891L148.203 20.8477L115.94 6.92777Z" fill="#333333"/>
    </g>
    <defs>
        <clipPath id="clip0_914_24">
            <rect width="433" height="451" fill="white"/>
        </clipPath>
    </defs>
</svg>
