<svg fill="none" viewBox="0 0 799 352" class="h-full"><path fill="url(#header_svg__a)" d="M359 43h406v275H359z"></path><rect width="172" height="172" x="431" y="94" fill="url(#header_svg__b)" rx="86"></rect><g filter="url(#header_svg__c)"><path fill="url(#header_svg__d)" d="M0 0h282v344H0z" transform="matrix(-1 0 0 1 799 8)"></path></g><path stroke="#000" stroke-dasharray="1 5" stroke-width="0.5" d="M546.25 180.75v-.5h144.5v.5z" opacity="0.5"></path><g filter="url(#header_svg__e)"><circle cx="597.5" cy="180.5" r="4.5" fill="url(#header_svg__f)"></circle></g><g filter="url(#header_svg__g)"><circle cx="573.5" cy="180.5" r="4.5" fill="url(#header_svg__h)"></circle></g><g filter="url(#header_svg__i)"><circle cx="624.5" cy="180.5" r="4.5" fill="url(#header_svg__j)"></circle></g><g filter="url(#header_svg__k)"><circle cx="648.5" cy="180.5" r="4.5" fill="url(#header_svg__l)"></circle></g><g filter="url(#header_svg__m)"><circle cx="676.5" cy="180.5" r="4.5" fill="url(#header_svg__n)"></circle></g><path stroke="url(#header_svg__o)" d="M531.918 212.262h-66.951c-71.193 0-136.564-39.321-169.926-102.213C261.678 47.158 196.308 7.836 125.115 7.836H6.672"></path><path stroke="url(#header_svg__p)" d="M531.918 212.262h-66.951c-71.193 0-136.564-39.321-169.926-102.213C261.678 47.158 196.308 7.836 125.115 7.836H6.672"></path><path stroke="url(#header_svg__q)" d="M531.918 179.027H411.061a219.999 219.999 0 0 1-114.556-32.178l-2.927-1.785a220 220 0 0 0-114.556-32.179h-19.639"></path><path stroke="url(#header_svg__r)" d="M531.918 179.027H411.061a219.999 219.999 0 0 1-114.556-32.178l-2.927-1.785a220 220 0 0 0-114.556-32.179h-19.639"></path><path stroke="url(#header_svg__s)" d="M540 201H438.303a180.831 180.831 0 0 1-143.272-70.5A180.832 180.832 0 0 0 151.759 60H92"></path><path stroke="url(#header_svg__t)" d="M527 190H423.739a187.633 187.633 0 0 0-128.598 51 187.629 187.629 0 0 1-128.597 51H110"></path><path stroke="url(#header_svg__u)" d="M529 167H414.114a217.203 217.203 0 0 0-119 35.5A217.206 217.206 0 0 1 176.113 238H70.5"></path><path stroke="url(#header_svg__v)" d="M529 167H414.114a217.203 217.203 0 0 0-119 35.5A217.206 217.206 0 0 1 176.113 238H70.5"></path><path stroke="url(#header_svg__w)" d="M526.082 155.683H364.968c-10.457 0-20.901.746-31.252 2.231l-77.351 11.101a220.071 220.071 0 0 1-31.252 2.231H121.5"></path><path stroke="url(#header_svg__x)" d="M527 147h-73.197c-71.057 0-136.708 37.936-172.191 99.5C246.13 308.064 180.478 346 109.421 346H26"></path><path stroke="url(#header_svg__y)" d="M527 147h-73.197c-71.057 0-136.708 37.936-172.191 99.5C246.13 308.064 180.478 346 109.421 346H26"></path><g filter="url(#header_svg__z)"><circle cx="109.776" cy="291.858" r="5.836" fill="#fff" fill-opacity="0.01"></circle><circle cx="109.776" cy="291.858" r="5.586" stroke="#FFE2B2"></circle></g><g filter="url(#header_svg__A)"><circle cx="70.836" cy="237.836" r="5.836" fill="#fff" fill-opacity="0.01"></circle><circle cx="70.836" cy="237.836" r="5.586" stroke="#FFE2B2"></circle></g><g filter="url(#header_svg__B)"><circle cx="124.36" cy="171.246" r="5.836" fill="#fff" fill-opacity="0.01"></circle><circle cx="124.36" cy="171.246" r="5.586" stroke="#FFE2B2"></circle></g><g filter="url(#header_svg__C)"><circle cx="158.41" cy="112.885" r="5.836" fill="#fff" fill-opacity="0.01"></circle><circle cx="158.41" cy="112.885" r="5.586" stroke="#FFE2B2"></circle></g><g filter="url(#header_svg__D)"><circle cx="296.53" cy="147.901" r="5.836" fill="url(#header_svg__E)"></circle><circle cx="296.53" cy="147.901" r="6.836" stroke="#fff" stroke-width="2"></circle></g><g filter="url(#header_svg__F)"><circle cx="216.836" cy="233.836" r="5.836" fill="url(#header_svg__G)"></circle><circle cx="216.836" cy="233.836" r="6.836" stroke="#fff" stroke-width="2"></circle></g><g filter="url(#header_svg__H)"><circle cx="86.431" cy="7.836" r="5.836" fill="url(#header_svg__I)"></circle><circle cx="86.431" cy="7.836" r="6.836" stroke="#fff" stroke-width="2"></circle></g><g filter="url(#header_svg__J)"><circle cx="164.836" cy="336.836" r="5.836" fill="url(#header_svg__K)"></circle><circle cx="164.836" cy="336.836" r="6.836" stroke="#fff" stroke-width="2"></circle></g><g filter="url(#header_svg__L)"><circle cx="92.268" cy="60.361" r="5.836" fill="#fff" fill-opacity="0.01"></circle><circle cx="92.268" cy="60.361" r="5.586" stroke="#FFE2B2"></circle></g><g filter="url(#header_svg__M)"><circle cx="6.672" cy="7.836" r="5.836" fill="#fff" fill-opacity="0.01"></circle><circle cx="6.672" cy="7.836" r="5.586" stroke="#FFE2B2"></circle></g><rect width="74" height="74" x="480" y="143" fill="#fff" rx="37"></rect><path fill="#F9F9F9" d="M689 165h76v32h-76z"></path><defs><linearGradient id="header_svg__a" x1="592.142" x2="385.447" y1="138.247" y2="173.198" gradientUnits="userSpaceOnUse"><stop stop-color="#fff"></stop><stop offset="1" stop-color="#fff" stop-opacity="0"></stop></linearGradient><linearGradient id="header_svg__b" x1="580.64" x2="426.218" y1="109.48" y2="203.464" gradientUnits="userSpaceOnUse"><stop stop-color="#FFD97E"></stop><stop offset="0.816" stop-color="#FC9C80"></stop><stop offset="1" stop-color="#FC808F"></stop></linearGradient><linearGradient id="header_svg__d" x1="0" x2="348.7" y1="0" y2="92.467" gradientUnits="userSpaceOnUse"><stop stop-color="#fff"></stop><stop offset="1" stop-color="#fff" stop-opacity="0"></stop></linearGradient><linearGradient id="header_svg__f" x1="592.25" x2="608.644" y1="191.868" y2="188.856" gradientUnits="userSpaceOnUse"><stop stop-color="#1F1F1F"></stop><stop offset="1" stop-color="#515051"></stop></linearGradient><linearGradient id="header_svg__h" x1="568.25" x2="584.644" y1="191.868" y2="188.856" gradientUnits="userSpaceOnUse"><stop stop-color="#1F1F1F"></stop><stop offset="1" stop-color="#515051"></stop></linearGradient><linearGradient id="header_svg__j" x1="619.25" x2="635.644" y1="191.868" y2="188.856" gradientUnits="userSpaceOnUse"><stop stop-color="#1F1F1F"></stop><stop offset="1" stop-color="#515051"></stop></linearGradient><linearGradient id="header_svg__l" x1="643.25" x2="659.644" y1="191.868" y2="188.856" gradientUnits="userSpaceOnUse"><stop stop-color="#1F1F1F"></stop><stop offset="1" stop-color="#515051"></stop></linearGradient><linearGradient id="header_svg__n" x1="671.25" x2="687.644" y1="191.868" y2="188.856" gradientUnits="userSpaceOnUse"><stop stop-color="#1F1F1F"></stop><stop offset="1" stop-color="#515051"></stop></linearGradient><linearGradient id="header_svg__o" x1="-343.391" x2="610.246" y1="237.816" y2="226.014" gradientUnits="userSpaceOnUse"><stop stop-color="#FFCF7F"></stop><stop offset="1" stop-color="#fff"></stop></linearGradient><linearGradient id="header_svg__p" x1="12.065" x2="244.871" y1="2.158" y2="149.167" gradientUnits="userSpaceOnUse"><stop stop-color="#FFC01F"></stop><stop offset="1" stop-color="#FF8A1F" stop-opacity="0"></stop></linearGradient><linearGradient id="header_svg__q" x1="-88.902" x2="587.08" y1="187.295" y2="168.956" gradientUnits="userSpaceOnUse"><stop stop-color="#FFCF7F"></stop><stop offset="1" stop-color="#fff"></stop></linearGradient><linearGradient id="header_svg__r" x1="163.208" x2="242.409" y1="111.048" y2="220.682" gradientUnits="userSpaceOnUse"><stop stop-color="#FFC01F"></stop><stop offset="1" stop-color="#FF8A1F" stop-opacity="0"></stop></linearGradient><linearGradient id="header_svg__s" x1="-263.062" x2="597.975" y1="218.625" y2="204.674" gradientUnits="userSpaceOnUse"><stop stop-color="#FFCF7F"></stop><stop offset="1" stop-color="#fff"></stop></linearGradient><linearGradient id="header_svg__t" x1="-261.871" x2="596.847" y1="211.794" y2="239.256" gradientUnits="userSpaceOnUse"><stop stop-color="#FFCF7F"></stop><stop offset="1" stop-color="#fff"></stop></linearGradient><linearGradient id="header_svg__u" x1="-350.898" x2="606.657" y1="158.126" y2="192.425" gradientUnits="userSpaceOnUse"><stop stop-color="#FFCF7F"></stop><stop offset="1" stop-color="#fff"></stop></linearGradient><linearGradient id="header_svg__v" x1="6.421" x2="81.839" y1="239.972" y2="102.132" gradientUnits="userSpaceOnUse"><stop stop-color="#FFC01F"></stop><stop offset="1" stop-color="#FF8A1F" stop-opacity="0"></stop></linearGradient><linearGradient id="header_svg__w" x1="-262.344" x2="579.728" y1="153.738" y2="277.19" gradientUnits="userSpaceOnUse"><stop stop-color="#FFCF7F"></stop><stop offset="1" stop-color="#fff"></stop></linearGradient><linearGradient id="header_svg__x" x1="-307.903" x2="601.718" y1="122.125" y2="133.155" gradientUnits="userSpaceOnUse"><stop stop-color="#FFCF7F"></stop><stop offset="1" stop-color="#fff"></stop></linearGradient><linearGradient id="header_svg__y" x1="31.144" x2="255.759" y1="351.528" y2="212.55" gradientUnits="userSpaceOnUse"><stop stop-color="#FFC01F"></stop><stop offset="1" stop-color="#FF8A1F" stop-opacity="0"></stop></linearGradient><linearGradient id="header_svg__E" x1="289.722" x2="310.983" y1="162.645" y2="158.739" gradientUnits="userSpaceOnUse"><stop stop-color="#1F1F1F"></stop><stop offset="1" stop-color="#515051"></stop></linearGradient><linearGradient id="header_svg__G" x1="210.027" x2="231.289" y1="248.58" y2="244.673" gradientUnits="userSpaceOnUse"><stop stop-color="#1F1F1F"></stop><stop offset="1" stop-color="#515051"></stop></linearGradient><linearGradient id="header_svg__I" x1="79.622" x2="100.884" y1="22.58" y2="18.673" gradientUnits="userSpaceOnUse"><stop stop-color="#1F1F1F"></stop><stop offset="1" stop-color="#515051"></stop></linearGradient><linearGradient id="header_svg__K" x1="158.027" x2="179.289" y1="351.58" y2="347.673" gradientUnits="userSpaceOnUse"><stop stop-color="#1F1F1F"></stop><stop offset="1" stop-color="#515051"></stop></linearGradient><filter id="header_svg__c" width="330" height="392" x="493" y="-16" color-interpolation-filters="sRGB" filterUnits="userSpaceOnUse"><feFlood flood-opacity="0" result="BackgroundImageFix"></feFlood><feGaussianBlur in="BackgroundImageFix" stdDeviation="12"></feGaussianBlur><feComposite in2="SourceAlpha" operator="in" result="effect1_backgroundBlur_932_796"></feComposite><feBlend in="SourceGraphic" in2="effect1_backgroundBlur_932_796" result="shape"></feBlend></filter><filter id="header_svg__e" width="17" height="17" x="589" y="172" color-interpolation-filters="sRGB" filterUnits="userSpaceOnUse"><feFlood flood-opacity="0" result="BackgroundImageFix"></feFlood><feGaussianBlur in="BackgroundImageFix" stdDeviation="2"></feGaussianBlur><feComposite in2="SourceAlpha" operator="in" result="effect1_backgroundBlur_932_796"></feComposite><feBlend in="SourceGraphic" in2="effect1_backgroundBlur_932_796" result="shape"></feBlend></filter><filter id="header_svg__g" width="17" height="17" x="565" y="172" color-interpolation-filters="sRGB" filterUnits="userSpaceOnUse"><feFlood flood-opacity="0" result="BackgroundImageFix"></feFlood><feGaussianBlur in="BackgroundImageFix" stdDeviation="2"></feGaussianBlur><feComposite in2="SourceAlpha" operator="in" result="effect1_backgroundBlur_932_796"></feComposite><feBlend in="SourceGraphic" in2="effect1_backgroundBlur_932_796" result="shape"></feBlend></filter><filter id="header_svg__i" width="17" height="17" x="616" y="172" color-interpolation-filters="sRGB" filterUnits="userSpaceOnUse"><feFlood flood-opacity="0" result="BackgroundImageFix"></feFlood><feGaussianBlur in="BackgroundImageFix" stdDeviation="2"></feGaussianBlur><feComposite in2="SourceAlpha" operator="in" result="effect1_backgroundBlur_932_796"></feComposite><feBlend in="SourceGraphic" in2="effect1_backgroundBlur_932_796" result="shape"></feBlend></filter><filter id="header_svg__k" width="17" height="17" x="640" y="172" color-interpolation-filters="sRGB" filterUnits="userSpaceOnUse"><feFlood flood-opacity="0" result="BackgroundImageFix"></feFlood><feGaussianBlur in="BackgroundImageFix" stdDeviation="2"></feGaussianBlur><feComposite in2="SourceAlpha" operator="in" result="effect1_backgroundBlur_932_796"></feComposite><feBlend in="SourceGraphic" in2="effect1_backgroundBlur_932_796" result="shape"></feBlend></filter><filter id="header_svg__m" width="17" height="17" x="668" y="172" color-interpolation-filters="sRGB" filterUnits="userSpaceOnUse"><feFlood flood-opacity="0" result="BackgroundImageFix"></feFlood><feGaussianBlur in="BackgroundImageFix" stdDeviation="2"></feGaussianBlur><feComposite in2="SourceAlpha" operator="in" result="effect1_backgroundBlur_932_796"></feComposite><feBlend in="SourceGraphic" in2="effect1_backgroundBlur_932_796" result="shape"></feBlend></filter><filter id="header_svg__z" width="19.672" height="19.672" x="99.94" y="282.022" color-interpolation-filters="sRGB" filterUnits="userSpaceOnUse"><feFlood flood-opacity="0" result="BackgroundImageFix"></feFlood><feGaussianBlur in="BackgroundImageFix" stdDeviation="2"></feGaussianBlur><feComposite in2="SourceAlpha" operator="in" result="effect1_backgroundBlur_932_796"></feComposite><feBlend in="SourceGraphic" in2="effect1_backgroundBlur_932_796" result="shape"></feBlend></filter><filter id="header_svg__A" width="19.672" height="19.672" x="61" y="228" color-interpolation-filters="sRGB" filterUnits="userSpaceOnUse"><feFlood flood-opacity="0" result="BackgroundImageFix"></feFlood><feGaussianBlur in="BackgroundImageFix" stdDeviation="2"></feGaussianBlur><feComposite in2="SourceAlpha" operator="in" result="effect1_backgroundBlur_932_796"></feComposite><feBlend in="SourceGraphic" in2="effect1_backgroundBlur_932_796" result="shape"></feBlend></filter><filter id="header_svg__B" width="19.672" height="19.672" x="114.524" y="161.41" color-interpolation-filters="sRGB" filterUnits="userSpaceOnUse"><feFlood flood-opacity="0" result="BackgroundImageFix"></feFlood><feGaussianBlur in="BackgroundImageFix" stdDeviation="2"></feGaussianBlur><feComposite in2="SourceAlpha" operator="in" result="effect1_backgroundBlur_932_796"></feComposite><feBlend in="SourceGraphic" in2="effect1_backgroundBlur_932_796" result="shape"></feBlend></filter><filter id="header_svg__C" width="19.672" height="19.672" x="148.574" y="103.049" color-interpolation-filters="sRGB" filterUnits="userSpaceOnUse"><feFlood flood-opacity="0" result="BackgroundImageFix"></feFlood><feGaussianBlur in="BackgroundImageFix" stdDeviation="2"></feGaussianBlur><feComposite in2="SourceAlpha" operator="in" result="effect1_backgroundBlur_932_796"></feComposite><feBlend in="SourceGraphic" in2="effect1_backgroundBlur_932_796" result="shape"></feBlend></filter><filter id="header_svg__D" width="23.672" height="23.672" x="284.694" y="136.065" color-interpolation-filters="sRGB" filterUnits="userSpaceOnUse"><feFlood flood-opacity="0" result="BackgroundImageFix"></feFlood><feGaussianBlur in="BackgroundImageFix" stdDeviation="2"></feGaussianBlur><feComposite in2="SourceAlpha" operator="in" result="effect1_backgroundBlur_932_796"></feComposite><feBlend in="SourceGraphic" in2="effect1_backgroundBlur_932_796" result="shape"></feBlend></filter><filter id="header_svg__F" width="23.672" height="23.672" x="205" y="222" color-interpolation-filters="sRGB" filterUnits="userSpaceOnUse"><feFlood flood-opacity="0" result="BackgroundImageFix"></feFlood><feGaussianBlur in="BackgroundImageFix" stdDeviation="2"></feGaussianBlur><feComposite in2="SourceAlpha" operator="in" result="effect1_backgroundBlur_932_796"></feComposite><feBlend in="SourceGraphic" in2="effect1_backgroundBlur_932_796" result="shape"></feBlend></filter><filter id="header_svg__H" width="23.672" height="23.672" x="74.595" y="-4" color-interpolation-filters="sRGB" filterUnits="userSpaceOnUse"><feFlood flood-opacity="0" result="BackgroundImageFix"></feFlood><feGaussianBlur in="BackgroundImageFix" stdDeviation="2"></feGaussianBlur><feComposite in2="SourceAlpha" operator="in" result="effect1_backgroundBlur_932_796"></feComposite><feBlend in="SourceGraphic" in2="effect1_backgroundBlur_932_796" result="shape"></feBlend></filter><filter id="header_svg__J" width="23.672" height="23.672" x="153" y="325" color-interpolation-filters="sRGB" filterUnits="userSpaceOnUse"><feFlood flood-opacity="0" result="BackgroundImageFix"></feFlood><feGaussianBlur in="BackgroundImageFix" stdDeviation="2"></feGaussianBlur><feComposite in2="SourceAlpha" operator="in" result="effect1_backgroundBlur_932_796"></feComposite><feBlend in="SourceGraphic" in2="effect1_backgroundBlur_932_796" result="shape"></feBlend></filter><filter id="header_svg__L" width="19.672" height="19.672" x="82.432" y="50.525" color-interpolation-filters="sRGB" filterUnits="userSpaceOnUse"><feFlood flood-opacity="0" result="BackgroundImageFix"></feFlood><feGaussianBlur in="BackgroundImageFix" stdDeviation="2"></feGaussianBlur><feComposite in2="SourceAlpha" operator="in" result="effect1_backgroundBlur_932_796"></feComposite><feBlend in="SourceGraphic" in2="effect1_backgroundBlur_932_796" result="shape"></feBlend></filter><filter id="header_svg__M" width="19.672" height="19.672" x="-3.164" y="-2" color-interpolation-filters="sRGB" filterUnits="userSpaceOnUse"><feFlood flood-opacity="0" result="BackgroundImageFix"></feFlood><feGaussianBlur in="BackgroundImageFix" stdDeviation="2"></feGaussianBlur><feComposite in2="SourceAlpha" operator="in" result="effect1_backgroundBlur_932_796"></feComposite><feBlend in="SourceGraphic" in2="effect1_backgroundBlur_932_796" result="shape"></feBlend></filter></defs></svg>